<svg width="60" height="60" viewBox="0 0 60 60" fill="none" xmlns="http://www.w3.org/2000/svg">
<g clip-path="url(#clip0_335_7624)">
<path d="M3.24576 32.4111H13.3576C15.1515 32.4111 16.6131 33.8727 16.6131 35.653V51.7574C16.6131 56.3014 12.8926 60.0088 8.3617 60.0088H3.24576C1.46545 60.0088 0.00341797 58.5472 0.00341797 56.7538V35.653C0.00388672 33.8727 1.46545 32.4111 3.24576 32.4111ZM13.3576 34.2843H3.24576C2.50186 34.2843 1.87748 34.896 1.87748 35.653V56.7538C1.87748 57.5108 2.50186 58.1352 3.24576 58.1352H8.3617C11.8693 58.1352 14.7263 55.2655 14.7263 51.7579V35.653C14.7263 34.8955 14.1151 34.2843 13.3576 34.2843Z" fill="#F47629"/>
<path d="M18.672 32.4643L23.389 29.8468C23.8409 29.1428 24.0668 28.3323 24.1198 27.3357C24.1995 26.1531 24.0532 24.7046 23.7879 22.8845C23.5489 21.3165 24.1067 19.9876 25.0503 19.1509C25.542 18.7257 26.1134 18.4201 26.7509 18.287C27.3753 18.1407 28.04 18.1543 28.7173 18.3535C30.0992 18.7656 31.4412 19.9614 32.225 22.2071C32.9159 24.1871 33.2614 26.087 33.3411 27.9873C33.4076 29.529 33.3012 31.0567 33.0621 32.6246H42.6561C44.3698 32.6246 46.1107 33.3418 47.3332 34.5512C48.5557 35.7601 49.2068 37.3684 48.9814 39.0953L47.1209 52.9009C46.669 56.1957 44.2775 57.6709 41.1017 57.6709H36.1189H23.0703C20.7715 57.6709 18.6856 56.7414 17.1837 55.2264C15.6692 53.7249 14.7256 51.6385 14.7256 49.3398V37.4734C14.7256 36.1178 15.2304 35.1212 16.0278 34.3107C16.7459 33.5804 17.6754 33.0221 18.672 32.4643ZM43.174 42.4829C43.692 42.4829 44.104 42.9081 44.104 43.4265C44.104 43.9449 43.692 44.3565 43.174 44.3565H33.1423V46.8146H42.6031C43.1211 46.8146 43.5467 47.2262 43.5467 47.7442C43.5467 48.2626 43.1215 48.6878 42.6031 48.6878H33.1423V51.1328H40.0118C40.5298 51.1328 40.9418 51.5579 40.9418 52.0764C40.9418 52.5948 40.5298 53.0064 40.0118 53.0064H33.1554C33.1953 53.7507 33.5145 54.4281 34.0193 54.9198C34.564 55.4645 35.3079 55.7968 36.1189 55.7968H41.1017C43.3203 55.7968 44.9417 54.9995 45.2604 52.6473L47.134 38.8421C47.2268 38.071 47.0412 37.3271 46.6554 36.6892C46.3629 38.1245 45.1807 39.4398 43.6925 39.4398H36.1189C35.3084 39.4398 34.5645 39.7717 34.0193 40.3032C33.4742 40.8484 33.1423 41.5923 33.1423 42.4028V42.4824L43.174 42.4829ZM32.292 55.7968C31.6545 54.9728 31.2687 53.9499 31.2687 52.8339V42.4032C31.2687 41.0743 31.8134 39.8654 32.6904 38.9884C33.5675 38.0982 34.79 37.5531 36.1184 37.5531H43.692C44.4232 37.5531 45.0078 36.4239 44.8081 35.7324C44.7284 35.4137 44.5029 35.0682 44.104 34.7359C43.6254 34.5765 43.1473 34.4968 42.6556 34.4968H32.6506C31.4811 38.2037 29.5676 42.7614 26.1129 44.6481C25.6615 44.8876 25.0896 44.7278 24.8375 44.2759C24.5984 43.8245 24.7578 43.2526 25.2228 43.0004C29.5807 40.622 31.6671 32.8487 31.4675 28.0656C31.4009 26.3382 31.0826 24.6109 30.4582 22.8306C29.9 21.2228 29.0361 20.3987 28.1857 20.1465C27.8267 20.0401 27.4817 20.027 27.1625 20.1067C26.8301 20.1732 26.5376 20.3321 26.2986 20.545C25.7937 20.9968 25.5012 21.7145 25.6343 22.6046C25.9268 24.5443 26.0862 26.1123 25.9934 27.4543C25.9268 28.4242 25.422 30.8425 24.492 31.3604L19.5889 34.0979C18.7118 34.5896 17.9145 35.0546 17.3698 35.6124C16.9048 36.091 16.6123 36.6756 16.6123 37.4729V49.3384C16.6123 51.1187 17.33 52.7265 18.499 53.896C19.6681 55.0782 21.2895 55.7964 23.0698 55.7964L32.292 55.7968Z" fill="#F47629"/>
<path d="M51.4263 7.05858L53.7644 12.0147L59.1855 12.7056C59.6904 12.7722 60.0625 13.2372 59.996 13.7551C59.9693 13.9811 59.8633 14.1672 59.7035 14.313L55.7304 18.0601L56.74 23.4414C56.8333 23.9462 56.501 24.438 55.9961 24.5308C55.7566 24.5842 55.5311 24.5308 55.3319 24.4112L50.575 21.8069L45.7783 24.438C45.3265 24.677 44.755 24.5176 44.5029 24.0662C44.3965 23.867 44.3697 23.6542 44.41 23.4414L45.4197 18.0601L41.4466 14.313C40.8485 13.7551 41.2071 12.7586 42.018 12.7051L47.3861 12.0142L49.7243 7.05811C49.9502 6.59311 50.5085 6.39389 50.9735 6.61936C51.1736 6.71311 51.333 6.87249 51.4263 7.05858ZM52.2897 13.277L50.576 9.64936L48.8622 13.277C48.7291 13.5559 48.4633 13.7556 48.131 13.795L44.1715 14.313L47.0815 17.05C47.3069 17.2628 47.4138 17.5816 47.3604 17.9139L46.6165 21.8472L50.1241 19.9206C50.3899 19.7744 50.7354 19.7612 51.0279 19.9206L54.5355 21.8472L53.7911 17.9139C53.7382 17.6083 53.8315 17.2891 54.0705 17.05L56.9936 14.313L53.0604 13.8081C52.7416 13.7819 52.436 13.5826 52.2897 13.277Z" fill="#F47629"/>
<path d="M49.7647 26.7104C49.8847 26.2056 50.3896 25.8868 50.8813 26.0064C51.3861 26.1259 51.7049 26.6312 51.5854 27.1225C51.373 28.0525 51.1068 28.9426 50.788 29.8065C50.4693 30.6836 50.084 31.5339 49.6452 32.3706C49.4062 32.8225 48.8479 33.0086 48.3965 32.7695C47.9315 32.5304 47.7585 31.959 47.9976 31.5076C48.3829 30.7632 48.7283 29.9795 49.034 29.169C49.326 28.3586 49.5791 27.5481 49.7647 26.7104ZM30.9632 1.96934V10.6061C33.156 10.4996 35.2419 10.0614 37.1952 9.31699C37.3147 9.27715 37.4343 9.22418 37.5674 9.17074C36.7433 7.19074 35.7468 5.51684 34.6176 4.26809C33.5015 3.04605 32.2654 2.23559 30.9632 1.96934ZM30.9632 12.4801V13.9286C30.9632 14.4465 30.5385 14.8717 30.0332 14.8717C29.5152 14.8717 29.0896 14.4465 29.0896 13.9286V12.4801C26.6713 12.3737 24.3594 11.882 22.2069 11.0715C22.0874 11.0186 21.9679 10.9787 21.8479 10.9389C20.8644 13.9018 20.2668 17.41 20.1735 21.1965H20.9577C21.4757 21.1965 21.8877 21.6217 21.8877 22.1401C21.8877 22.6586 21.4762 23.0701 20.9577 23.0701H20.1735C20.1866 23.695 20.2133 24.2926 20.2532 24.8771C20.3197 25.8071 20.4126 26.6973 20.5321 27.5612C20.5987 28.0661 20.2396 28.5446 19.7347 28.6107C19.2168 28.6773 18.7513 28.3182 18.6847 27.8134C18.5521 26.8834 18.4588 25.9529 18.3922 25.0098C18.3524 24.3587 18.3126 23.7207 18.2994 23.0697H9.79629C9.82301 23.8004 9.8891 24.5181 10.0087 25.2221C10.1549 26.2454 10.394 27.242 10.6996 28.2118C10.8458 28.7036 10.5669 29.2215 10.0752 29.3814C9.58348 29.5276 9.06551 29.2618 8.90567 28.7701C8.57379 27.707 8.32113 26.6176 8.14817 25.4884C7.9752 24.399 7.89551 23.2693 7.89551 22.1401C7.89551 16.0276 10.3668 10.487 14.3797 6.48762C18.3801 2.48777 23.9207 0.00292969 30.0332 0.00292969C33.0894 0.00292969 36.0126 0.627305 38.6699 1.75699C41.4205 2.92605 43.8918 4.64027 45.9383 6.76652C46.2969 7.13824 46.2969 7.72324 45.9252 8.08184C45.553 8.4409 44.9554 8.42731 44.5963 8.05512C44.4107 7.86902 44.2241 7.68293 44.0249 7.49731C42.7757 8.53371 41.3938 9.42387 39.9187 10.1678C39.9988 10.3937 40.0785 10.6196 40.1446 10.8456C40.2908 11.3373 40.0251 11.8689 39.5202 12.0151C39.0285 12.1614 38.5105 11.8956 38.3507 11.3903C38.3108 11.244 38.2579 11.0846 38.2044 10.9253C38.0849 10.9782 37.9654 11.0181 37.859 11.0715C35.6933 11.882 33.3815 12.3732 30.9632 12.4801ZM29.0896 10.6061V1.96934C26.8574 2.43434 24.7977 4.4809 23.2302 7.57652C22.9644 8.08137 22.7254 8.61293 22.4994 9.17074C22.619 9.22418 22.7385 9.27715 22.858 9.31699C24.8113 10.0614 26.8972 10.5001 29.0896 10.6061ZM41.4069 21.1965C41.9254 21.1965 42.3505 21.6217 42.3505 22.1401C42.3505 22.6586 41.9258 23.0701 41.4069 23.0701H35.0826C34.5646 23.0701 34.1526 22.6586 34.1526 22.1401C34.1526 21.6217 34.5646 21.1965 35.0826 21.1965H41.4069ZM9.79629 21.1965H18.3004C18.3932 17.1437 19.0579 13.3567 20.1341 10.1546C18.6594 9.42387 17.2907 8.53371 16.0283 7.49731C15.9219 7.60371 15.8155 7.71012 15.7091 7.81605C12.2413 11.2707 10.0358 15.9746 9.79629 21.1965ZM17.4501 6.24809C18.4865 7.07168 19.6026 7.78934 20.7852 8.40059C21.0379 7.81605 21.2901 7.25777 21.5558 6.72668C22.3794 5.11887 23.323 3.75012 24.3726 2.67387C21.8216 3.41777 19.483 4.64027 17.4501 6.24809ZM39.2676 8.40059C40.4502 7.78934 41.5663 7.07215 42.6027 6.24809C41.181 5.13199 39.613 4.1884 37.9387 3.48434C37.2079 3.16512 36.4504 2.89934 35.6802 2.67387C35.7866 2.7934 35.8926 2.8998 35.9994 3.01934C37.2613 4.41434 38.3643 6.23496 39.2676 8.40059ZM39.8127 24.5312C39.8526 24.0264 40.2913 23.6279 40.8093 23.6542C41.3141 23.6809 41.713 24.1328 41.6863 24.6507C41.6333 25.5011 41.5536 26.3251 41.4608 27.122C41.3676 27.9325 41.248 28.7429 41.0887 29.5403C40.9958 30.0451 40.5172 30.3901 40.0124 30.2978C39.4944 30.2045 39.1621 29.7128 39.2549 29.2079C39.3876 28.4771 39.5076 27.7065 39.6004 26.9092C39.6932 26.1259 39.7729 25.329 39.8127 24.5312Z" fill="#F47629"/>
<path d="M9.64995 51.7303C9.64995 51.2123 10.062 50.8008 10.58 50.8008C11.0979 50.8008 11.5235 51.2123 11.5235 51.7303C11.5235 53.7239 9.9026 55.3448 7.90948 55.3448C5.91635 55.3448 4.29541 53.7239 4.29541 51.7303C4.29541 51.2123 4.72057 50.8008 5.23901 50.8008C5.75745 50.8008 6.1826 51.2123 6.1826 51.7303C6.1826 52.7002 6.95323 53.4712 7.90995 53.4712C8.86666 53.4712 9.64995 52.7006 9.64995 51.7303Z" fill="#F47629"/>
</g>
<defs>
<clipPath id="clip0_335_7624">
<rect width="60" height="60" fill="white"/>
</clipPath>
</defs>
</svg>
