<?xml version="1.0" encoding="UTF-8"?>
<svg xmlns="http://www.w3.org/2000/svg" version="1.1" viewBox="0 0 48 48">
  <!-- Generator: Adobe Illustrator 29.4.0, SVG Export Plug-In . SVG Version: 2.1.0 Build 152)  -->
  <defs>
    <style>
      .st0 {
        fill: #0071bc;
      }

      .st1 {
        display: none;
      }
    </style>
  </defs>
  <g id="R_x26_D_Excellence" class="st1">
    <path class="st0" d="M43.36,33.38l-1-.27c-.13-.4-.29-.79-.49-1.17l.52-.9c.27-.47.19-1.05-.19-1.44l-.84-.84c1.87-2.69,2.88-5.88,2.88-9.23,0-4.33-1.69-8.4-4.75-11.46-5.62-5.62-14.37-6.24-20.68-1.86l-.84-.84c-.38-.38-.96-.46-1.44-.19l-.9.52c-.38-.19-.77-.36-1.17-.48l-.27-1c-.14-.53-.6-.88-1.15-.88h-2.02c-.55,0-1.01.35-1.15.88l-.27,1c-.4.13-.79.29-1.17.48l-.9-.52c-.47-.27-1.05-.2-1.44.19l-1.43,1.43c-.38.39-.46.96-.19,1.44l.52.9c-.19.38-.36.77-.48,1.17l-1,.27c-.53.14-.88.61-.88,1.15v2.02c0,.54.35,1.01.88,1.15l1,.27c.13.4.29.79.49,1.17l-.52.9c-.27.47-.2,1.05.19,1.44l1.43,1.43c.39.39.97.46,1.44.19l.9-.52c.37.19.76.35,1.17.48l.27,1c.14.53.6.89,1.15.89h1.03c.4,2.48,1.38,4.89,2.94,7l-5.26,5.26c-.27-.15-.57-.23-.89-.23h0c-.49,0-.95.19-1.29.53l-4.39,4.39c-.71.71-.71,1.87,0,2.59l2.74,2.74c.36.36.82.53,1.29.53s.94-.18,1.29-.53l4.39-4.39c.35-.35.54-.81.53-1.3,0-.32-.08-.62-.23-.89l5.26-5.26c2.11,1.56,4.52,2.54,7,2.94v1.03c0,.55.36,1.01.88,1.15l1,.27c.13.4.29.8.48,1.17l-.52.9c-.28.47-.2,1.05.19,1.44l1.43,1.43c.38.38.96.46,1.44.19l.9-.52c.38.19.77.36,1.17.49l.27,1c.14.53.6.88,1.15.88h2.02c.55,0,1.01-.35,1.15-.88l.27-1c.41-.13.8-.29,1.17-.48l.9.52c.47.27,1.05.2,1.44-.19l1.43-1.43c.38-.39.46-.96.19-1.44l-.52-.9c.19-.38.36-.77.49-1.17l1-.27c.53-.14.88-.6.88-1.15v-2.02c0-.55-.35-1.01-.88-1.15h0ZM11.03,21.16c-.09,0-.17-.06-.19-.15l-.34-1.27c-.05-.17-.18-.3-.34-.35-.52-.15-1.02-.35-1.48-.61-.15-.09-.34-.08-.49,0l-1.14.66c-.08.05-.17.04-.24-.03l-1.43-1.43c-.07-.07-.08-.16-.03-.24l.66-1.14c.09-.15.09-.34,0-.49-.26-.47-.47-.97-.61-1.48-.05-.17-.18-.3-.35-.34l-1.27-.34c-.09-.03-.15-.1-.15-.19v-2.02c0-.1.06-.17.15-.2l1.27-.34c.17-.05.3-.18.35-.34.15-.51.35-1.01.61-1.48.09-.15.08-.34,0-.49l-.66-1.14c-.05-.08-.03-.18.03-.24l1.43-1.43c.07-.07.16-.08.24-.03l1.14.66c.15.09.34.09.49,0,.47-.26.97-.47,1.48-.61.17-.05.3-.18.34-.35l.34-1.27c.02-.09.1-.15.19-.15h2.02c.1,0,.17.06.19.15l.34,1.27c.05.17.18.3.34.35.51.14,1.01.35,1.48.61.15.08.34.08.49,0l1.13-.65c.08-.05.18-.04.24.03l.74.74c-.49.39-.97.81-1.42,1.27-.43.43-.82.87-1.19,1.33-.89-.9-2.08-1.4-3.36-1.4-2.61,0-4.73,2.12-4.73,4.73,0,1.35.58,2.64,1.59,3.54.86.76,1.95,1.18,3.09,1.19-.16,1.22-.17,2.46-.05,3.68h-.9,0ZM12.14,16.48c-.95.02-1.87-.31-2.59-.94-.8-.71-1.26-1.73-1.26-2.8,0-2.06,1.68-3.74,3.74-3.74,1.06,0,2.05.44,2.76,1.21-1.35,1.91-2.23,4.05-2.65,6.27h0ZM17.29,8.78c2.97-2.97,6.86-4.45,10.76-4.45s7.79,1.48,10.76,4.45c5.93,5.93,5.93,15.58,0,21.51-5.93,5.93-15.58,5.93-21.51,0-5.93-5.93-5.93-15.58,0-21.51h0ZM38.58,35.54c0,2.06-1.68,3.74-3.74,3.74-1.07,0-2.09-.46-2.8-1.26-.63-.71-.97-1.64-.94-2.59,2.21-.42,4.36-1.31,6.27-2.65.77.71,1.21,1.69,1.21,2.76ZM12.18,39.33l-4.39,4.39c-.33.33-.86.33-1.19,0l-2.74-2.74c-.33-.33-.33-.86,0-1.19l4.39-4.39c.16-.16.37-.24.59-.24h0c.22,0,.43.09.59.24l2.74,2.74c.16.16.24.37.24.59,0,.23-.09.44-.24.59h0ZM12.53,37.09l-2.04-2.04,5.12-5.12c.31.37.63.72.97,1.06.34.34.7.67,1.06.97l-5.12,5.13h0ZM43.25,36.55c0,.1-.05.17-.15.19l-1.27.34c-.17.05-.3.18-.35.34-.15.51-.35,1.01-.61,1.48-.09.15-.08.34,0,.49l.66,1.14c.05.08.03.18-.03.24l-1.43,1.43c-.07.07-.16.08-.24.03l-1.14-.66c-.15-.09-.34-.09-.49,0-.46.26-.96.46-1.48.61-.17.05-.3.18-.34.35l-.34,1.27c-.02.09-.1.15-.19.15h-2.02c-.1,0-.17-.06-.19-.15l-.34-1.27c-.05-.17-.18-.3-.34-.35-.51-.14-1.01-.35-1.48-.61-.15-.09-.34-.08-.49,0l-1.14.66c-.08.05-.18.04-.24-.03l-1.43-1.43c-.07-.07-.08-.16-.03-.24l.66-1.14c.09-.15.09-.34,0-.49-.26-.46-.46-.96-.61-1.48-.05-.17-.18-.3-.35-.34l-1.27-.34c-.09-.02-.15-.1-.15-.19v-.9c.54.05,1.08.08,1.62.08.69,0,1.38-.04,2.07-.13.01,1.13.43,2.23,1.19,3.09.9,1.01,2.19,1.59,3.54,1.59,2.61,0,4.73-2.12,4.73-4.73,0-1.28-.5-2.48-1.4-3.36.46-.37.9-.76,1.33-1.19.45-.45.88-.93,1.27-1.42l.74.74c.07.07.08.16.03.24l-.66,1.13c-.09.15-.09.34,0,.49.26.47.47.97.61,1.48.05.17.18.3.35.34l1.27.34c.09.02.15.1.15.19v2.02h0ZM28.04,32.11c6.93,0,12.57-5.64,12.57-12.57s-5.64-12.57-12.57-12.57-12.57,5.64-12.57,12.57,5.64,12.57,12.57,12.57h0ZM28.04,7.96c6.39,0,11.58,5.2,11.58,11.58s-5.2,11.58-11.58,11.58-11.58-5.2-11.58-11.58,5.2-11.58,11.58-11.58h0ZM28.04,12.34c-3.14,0-5.69,2.55-5.69,5.69,0,1.66.67,2.65,1.31,3.6.58.86,1.13,1.68,1.25,3.03v1.78c0,.55.32,1.02.79,1.23v.66c0,.76.62,1.38,1.38,1.38h1.92c.76,0,1.38-.62,1.38-1.38v-.66c.46-.22.79-.69.79-1.24v-1.74s0-.01,0-.02c.12-1.36.67-2.18,1.25-3.05.64-.96,1.31-1.95,1.31-3.6,0-3.13-2.55-5.69-5.69-5.69h0ZM28.41,24.14h-.73s0-4.26,0-4.26c.12,0,.24.01.36.01h.01c.12,0,.24,0,.36-.01v4.26ZM30.18,25.13v1.31c0,.2-.17.38-.37.38h-3.52c-.2,0-.38-.17-.38-.38v-1.31h4.27ZM29,28.72h-1.92c-.21,0-.39-.18-.39-.39v-.53h2.7v.53c0,.22-.18.39-.39.39h0ZM31.6,21.08c-.54.8-1.14,1.7-1.36,3.06h-.84s0-4.4,0-4.4c.76-.17,1.38-.49,1.76-.91.34-.37.49-.82.45-1.3-.07-.77-.53-1.41-1.16-1.6-.37-.11-.72-.06-1.01.15-.55.38-.87,1.28-1,2.8-.13.01-.26.02-.4.02-.13,0-.27,0-.4-.02-.13-1.53-.46-2.42-1-2.8-.3-.21-.65-.26-1.01-.15-.63.19-1.09.83-1.16,1.6-.04.48.12.93.45,1.3.38.42,1,.73,1.76.91v4.4h-.84c-.21-1.36-.82-2.26-1.36-3.06-.61-.91-1.14-1.7-1.14-3.05,0-2.59,2.11-4.7,4.7-4.7s4.7,2.11,4.7,4.7c0,1.35-.53,2.14-1.14,3.05h0ZM29.45,18.7c.16-1.42.46-1.74.56-1.81.02-.01.04-.03.08-.03.02,0,.05,0,.08.01.24.07.42.37.45.73.02.21-.05.39-.2.55-.2.22-.55.41-.98.54h0ZM26.63,18.7c-.43-.13-.77-.31-.98-.54-.15-.17-.22-.34-.2-.55.03-.36.22-.66.45-.73.04-.01.06-.01.09-.01.04,0,.06.01.08.03.1.07.4.39.56,1.81h0ZM27.55,11.13v-1.27c0-.27.22-.49.49-.49s.49.22.49.49v1.27c0,.27-.22.49-.49.49s-.49-.22-.49-.49ZM23.53,11.2c-.14-.24-.06-.54.18-.68.24-.14.54-.06.68.18l.64,1.1c.14.24.06.54-.18.68-.08.04-.16.07-.25.07-.17,0-.34-.09-.43-.25l-.64-1.1ZM20.54,13.69c.14-.24.44-.32.68-.18l1.1.64c.24.14.32.44.18.68-.09.16-.26.25-.43.25-.08,0-.17-.02-.25-.07l-1.1-.64c-.24-.14-.32-.44-.18-.68h0ZM19.87,18.52c-.27,0-.49-.22-.49-.49s.22-.49.49-.49h1.27c.27,0,.49.22.49.49s-.22.49-.49.49h-1.27ZM31.06,11.81l.64-1.1c.14-.24.44-.32.68-.18.24.14.32.44.18.68l-.64,1.1c-.09.16-.26.25-.43.25-.08,0-.17-.02-.25-.07-.24-.14-.32-.44-.18-.68h0ZM33.58,14.83c-.14-.24-.06-.54.18-.68l1.1-.64c.24-.14.54-.06.68.18.14.24.06.54-.18.68l-1.1.64c-.08.04-.16.07-.25.07-.17,0-.34-.09-.43-.25h0ZM34.94,17.53h1.27c.27,0,.49.22.49.49s-.22.49-.49.49h-1.27c-.27,0-.49-.22-.49-.49s.22-.49.49-.49Z"/>
  </g>
  <g id="Global_Presence" class="st1">
    <path class="st0" d="M11.83,26.57c-1.56-1.48-7.8-1.96-9.68-2.07-.25-.01-.5.07-.68.25-.18.17-.29.41-.29.66v16.39c0,.5.41.91.91.91h5.46c.39,0,.74-.26.87-.63.13-.41,3.27-10.04,3.68-14.78.03-.28-.08-.55-.28-.74ZM6.9,40.89h-3.89v-14.51c2.93.23,6.09.73,7.24,1.29-.48,3.99-2.67,11.08-3.35,13.22Z"/>
    <path class="st0" d="M44.81,37.75c-1.26-2.53-4.07-3.82-6.81-3.13l-6.98,1.75c-.49.12-.78.62-.66,1.1s.6.78,1.1.66l6.98-1.74c1.59-.39,3.21.16,4.22,1.38l-9.03,4.11c-7.66,3.14-7.93,3.04-11.21,1.8l-13.66-4.55c-.48-.16-.99.1-1.15.58-.16.48.1.99.58,1.15l13.63,4.54c1.53.58,2.59.91,3.77.91,1.85,0,4.01-.81,8.76-2.76l10.02-4.55c.22-.1.4-.29.48-.52.08-.23.07-.49-.04-.71Z"/>
    <path class="st0" d="M27.8,31.81l-16.39-3.64c-.49-.1-.98.2-1.09.69-.11.49.2.98.69,1.09l16.37,3.64c2.02.5,2.83,1.3,2.94,2.96l-1.75.44c-.65.16-1.34.18-2,.05l-7.9-1.58c-.47-.1-.97.22-1.07.71-.1.49.22.97.72,1.07l7.9,1.58c.41.08.83.12,1.25.12.52,0,1.04-.06,1.54-.19l2.45-.61c.41-.1.69-.47.69-.88v-.29c0-2.81-1.34-4.4-4.36-5.16Z"/>
    <path class="st0" d="M27.6,2.64c-.5,0-.91.41-.91.91v25.5c0,.5.41.91.91.91s.91-.41.91-.91V3.55c0-.5-.41-.91-.91-.91Z"/>
    <path class="st0" d="M43.99,19.03H11.2c-.5,0-.91.41-.91.91s.41.91.91.91h32.79c.5,0,.91-.41.91-.91s-.41-.91-.91-.91Z"/>
    <path class="st0" d="M41.26,9.92H13.94c-.5,0-.91.41-.91.91s.41.91.91.91h27.32c.5,0,.91-.41.91-.91s-.41-.91-.91-.91Z"/>
    <path class="st0" d="M41.26,28.14h-13.66c-.5,0-.91.41-.91.91s.41.91.91.91h13.66c.5,0,.91-.41.91-.91s-.41-.91-.91-.91Z"/>
    <path class="st0" d="M27.6,2.64c-9.54,0-17.31,7.76-17.31,17.31,0,1.19.12,2.38.37,3.56.1.49.6.81,1.08.7.49-.1.81-.58.7-1.08-.22-1.05-.33-2.12-.33-3.18,0-8.54,6.95-15.49,15.49-15.49s15.48,6.95,15.48,15.48c0,4.23-1.68,8.18-4.74,11.13-.36.35-.37.93-.02,1.29.18.19.42.28.65.28s.46-.09.63-.26c3.41-3.3,5.29-7.71,5.29-12.44,0-9.54-7.76-17.31-17.31-17.31Z"/>
    <path class="st0" d="M27.6,2.64c-5.62,0-10.02,7.6-10.02,17.31,0,2.59.33,5.09.97,7.44.13.48.63.77,1.12.64.49-.13.77-.63.64-1.12-.6-2.2-.9-4.54-.9-6.96,0-8.39,3.75-15.48,8.2-15.48s8.2,7.09,8.2,15.48c0,4.6-1.1,8.94-3.03,11.93-.28.42-.15.99.27,1.26.15.1.32.15.49.15.3,0,.59-.15.77-.42,2.11-3.27,3.32-7.97,3.32-12.91,0-9.7-4.4-17.31-10.02-17.31Z"/>
  </g>
  <g id="Layer_3">
    <path class="st0" d="M42.05,27.16c-1.43,7.16-7.03,12.77-14.19,14.19-.04,0-.08.01-.13.01-.36,0-.65-.29-.65-.65,0-.31.22-.57.52-.63,6.66-1.3,11.87-6.51,13.17-13.17.08-.35.43-.57.77-.49.33.08.55.4.49.74h0ZM21.07,40.08c-6.66-1.3-11.87-6.51-13.17-13.17-.08-.35-.43-.57-.77-.49-.33.08-.55.4-.49.74,1.43,7.16,7.03,12.76,14.19,14.19.04,0,.08.01.13.01.36,0,.65-.29.65-.65,0-.31-.22-.57-.52-.63h0ZM27.61,7.2c6.66,1.3,11.87,6.51,13.17,13.17.06.3.33.52.63.52.04,0,.08,0,.13-.01.35-.07.58-.41.51-.76-1.43-7.16-7.03-12.76-14.19-14.19-.35-.08-.69.14-.77.49-.08.35.14.69.49.77.01,0,.02,0,.04,0h0ZM7.14,20.88s.08.01.13.01c.31,0,.57-.22.63-.52,1.3-6.66,6.51-11.87,13.17-13.17.35-.06.59-.39.53-.74-.06-.35-.39-.59-.74-.53-.01,0-.02,0-.04,0-7.16,1.43-12.76,7.03-14.19,14.19-.07.35.16.69.51.76,0,0,0,0,0,0ZM24.34,9.92c.36,0,.65-.29.65-.65v-5.03c0-.36-.29-.65-.65-.65s-.65.29-.65.65v5.03c0,.36.29.65.65.65ZM24.34,37.36c-.36,0-.65.29-.65.65v5.03c0,.36.29.65.65.65s.65-.29.65-.65v-5.03c0-.36-.29-.65-.65-.65h0ZM10.62,23.64c0-.36-.29-.65-.65-.65h-5.03c-.36,0-.65.29-.65.65s.29.65.65.65h5.03c.36,0,.65-.29.65-.65ZM43.74,22.99h-5.03c-.36,0-.65.29-.65.65s.29.65.65.65h5.03c.36,0,.65-.29.65-.65s-.29-.65-.65-.65ZM36.93,23.64c0,6.94-5.65,12.59-12.59,12.59s-12.59-5.65-12.59-12.59,5.65-12.59,12.59-12.59,12.59,5.65,12.59,12.59ZM35.64,23.64c0-6.23-5.07-11.3-11.3-11.3s-11.3,5.07-11.3,11.3,5.07,11.3,11.3,11.3,11.3-5.07,11.3-11.3ZM31.93,21.4h.74c.53,0,.98.39,1.05.91.12.88.12,1.77,0,2.65-.07.53-.52.92-1.05.91h-.74c-.16.54-.37,1.05-.64,1.55l.52.52c.38.37.42.96.1,1.38-.53.71-1.17,1.34-1.88,1.88-.42.32-1.01.28-1.38-.1l-.52-.52c-.49.27-1.01.48-1.55.64v.74c0,.53-.39.98-.91,1.05-.88.12-1.77.12-2.65,0-.53-.07-.92-.52-.91-1.05v-.74c-.54-.16-1.06-.37-1.55-.64l-.52.52c-.37.38-.96.42-1.38.1-.71-.53-1.34-1.17-1.88-1.88-.32-.42-.28-1.01.1-1.38l.52-.52c-.27-.49-.48-1.01-.64-1.55h-.73c-.53,0-.98-.39-1.05-.91-.12-.88-.12-1.77,0-2.65.07-.53.52-.92,1.05-.91h.73c.16-.54.37-1.06.64-1.55l-.52-.52c-.38-.37-.42-.96-.1-1.38.53-.71,1.17-1.34,1.88-1.88.42-.32,1.01-.28,1.38.1l.52.52c.49-.27,1.01-.48,1.55-.64v-.73c0-.53.39-.98.91-1.05.88-.12,1.77-.12,2.65,0,.53.07.92.52.91,1.05v.73c.54.16,1.06.37,1.55.64l.52-.52c.37-.38.96-.42,1.38-.1.71.53,1.34,1.17,1.88,1.88.32.42.28,1.01-.1,1.39l-.51.52c.27.49.48,1.01.64,1.55ZM32.45,22.69h-1.02c-.3,0-.56-.21-.63-.51-.17-.74-.46-1.45-.87-2.09-.16-.26-.13-.59.09-.8l.73-.73c-.39-.5-.84-.94-1.34-1.34l-.73.73c-.21.21-.55.25-.8.09-.64-.41-1.35-.7-2.09-.87-.3-.07-.51-.33-.51-.63v-1.02c-.63-.07-1.26-.07-1.89,0v1.02c0,.3-.21.56-.51.63-.74.17-1.45.46-2.09.87-.26.16-.59.13-.8-.09l-.73-.73c-.5.39-.94.84-1.34,1.34l.73.73c.21.21.25.55.09.8-.41.64-.7,1.35-.87,2.09-.07.3-.33.5-.63.51h-1.02c-.07.63-.07,1.26,0,1.89h1.02c.3,0,.56.21.63.51.17.74.46,1.45.87,2.09.16.26.13.59-.09.8l-.73.73c.39.5.84.94,1.34,1.34l.73-.73c.21-.21.55-.25.8-.09.64.41,1.35.7,2.09.87.3.07.51.33.51.63v1.02c.63.07,1.26.07,1.89,0v-1.02c0-.3.21-.56.51-.63.74-.17,1.45-.46,2.09-.87.26-.16.59-.13.8.09l.73.73c.5-.39.94-.84,1.34-1.34l-.73-.73c-.21-.21-.25-.55-.09-.8.41-.64.7-1.35.87-2.09.07-.3.33-.51.63-.51h1.02c.07-.63.07-1.26,0-1.89h0ZM29.48,23.64c0,2.84-2.3,5.14-5.14,5.14s-5.14-2.3-5.14-5.14,2.3-5.14,5.14-5.14h0c2.83,0,5.13,2.3,5.14,5.14ZM28.18,23.64c0-2.12-1.72-3.84-3.84-3.84s-3.84,1.72-3.84,3.84,1.72,3.84,3.84,3.84c2.12,0,3.84-1.72,3.84-3.84Z"/>
  </g>
  <g id="Layer_4" class="st1">
    <path class="st0" d="M7.78,31.81c.38,0,.69-.31.69-.69V9.66c0-.38.31-.69.69-.69h6.23v2.08h-2.77c-1.15,0-2.08.93-2.08,2.08v23.54c0,1.15.93,2.08,2.08,2.08h14.25c.38,0,.69-.31.69-.69s-.31-.69-.69-.69h-14.25c-.38,0-.69-.31-.69-.69V13.12c0-.38.31-.69.69-.69h2.9c.29.83,1.07,1.38,1.95,1.38h11.08c.88,0,1.66-.56,1.95-1.38h2.9c.38,0,.69.31.69.69v12.56c0,.38.31.69.69.69s.69-.31.69-.69v-12.56c0-1.15-.93-2.08-2.08-2.08h-2.77v-2.08h6.23c.38,0,.69.31.69.69v2.08c0,.38.31.69.69.69s.69-.31.69-.69v-2.08c0-1.15-.93-2.08-2.08-2.08h-6.36c-.29-.83-1.07-1.38-1.95-1.38h-2.15c-.38-1.87-2.21-3.08-4.08-2.7-1.36.28-2.42,1.34-2.7,2.7h-2.15c-.88,0-1.66.56-1.95,1.38h-6.36c-1.15,0-2.08.93-2.08,2.08v21.46c0,.38.31.69.69.69ZM17.48,7.58h2.77c.38,0,.69-.31.69-.69.01-1.15.95-2.07,2.1-2.05,1.13.01,2.04.92,2.05,2.05,0,.38.31.69.69.69h2.77c.38,0,.69.31.69.69v3.46c0,.38-.31.69-.69.69h-11.08c-.38,0-.69-.31-.69-.69v-3.46c0-.38.31-.69.69-.69Z"/>
    <path class="st0" d="M23.01,7.58c.38,0,.69-.32.68-.7,0-.37-.31-.68-.68-.68-.38,0-.69.32-.68.7,0,.37.31.68.68.68Z"/>
    <path class="st0" d="M32.01,18.66c0-.38-.31-.69-.69-.69H14.71c-.38,0-.69.31-.69.69s.31.69.69.69h16.62c.38,0,.69-.31.69-.69Z"/>
    <path class="st0" d="M29.25,24.2c0-.38-.31-.69-.69-.69h-13.85c-.38,0-.69.31-.69.69s.31.69.69.69h13.85c.38,0,.69-.31.69-.69Z"/>
    <path class="st0" d="M14.71,29.04c-.38,0-.69.33-.68.71,0,.37.31.67.68.68h11.77c.38,0,.69-.32.68-.7,0-.37-.31-.68-.68-.68h-11.77Z"/>
    <path class="st0" d="M38.94,28.93v-13.74c0-.38-.32-.69-.7-.68-.37,0-.68.31-.68.68v13.29c-7.16-1.48-11.39,8.03-5.52,12.32H9.17c-.38,0-.69-.31-.69-.69v-5.54c0-.38-.32-.69-.7-.68-.37,0-.68.31-.68.68v5.54c0,1.15.93,2.08,2.08,2.08h27c3.82,0,6.92-3.1,6.92-6.92,0-2.75-1.63-5.25-4.15-6.35ZM36.17,40.81c-3.06,0-5.54-2.48-5.54-5.54.3-7.35,10.77-7.35,11.08,0,0,3.06-2.48,5.54-5.54,5.54Z"/>
    <path class="st0" d="M38.94,35.62h-2.08v-2.77c0-.38-.32-.69-.7-.68-.37,0-.68.31-.68.68v3.46c0,.38.31.69.69.69h2.77c.38,0,.69-.32.68-.7,0-.37-.31-.68-.68-.68Z"/>
  </g>
</svg>